<svg width="24" height="24" viewBox="0 0 24 24" fill="none" xmlns="http://www.w3.org/2000/svg">
<g id="Icon - Verification">
<path id="Vector" fill-rule="evenodd" clip-rule="evenodd" d="M14.2686 4.62166C13.0722 3.23907 10.9278 3.23907 9.73143 4.62166L9.19876 5.23723L8.38682 5.17861C6.56321 5.04695 5.04692 6.56324 5.17858 8.38685L5.2372 9.19879L4.62163 9.73146C3.23904 10.9279 3.23904 13.0722 4.62163 14.2686L5.2372 14.8013L5.17858 15.6132C5.04692 17.4368 6.56321 18.9531 8.38683 18.8214L9.19876 18.7628L9.73143 19.3784C10.9278 20.761 13.0722 20.761 14.2686 19.3784L14.8012 18.7628L15.6132 18.8214C17.4368 18.9531 18.9531 17.4368 18.8214 15.6132L18.7628 14.8013L19.3784 14.2686C20.761 13.0722 20.761 10.9279 19.3784 9.73146L18.7628 9.19879L18.8214 8.38686C18.9531 6.56324 17.4368 5.04695 15.6132 5.17861L14.8012 5.23723L14.2686 4.62166ZM15.6961 10.7179C16.0926 10.3335 16.1024 9.70037 15.7179 9.30388C15.3334 8.9074 14.7003 8.89766 14.3039 9.28213L10.875 12.6071L9.69615 11.4639C9.29966 11.0795 8.66657 11.0892 8.2821 11.4857C7.89763 11.8822 7.90737 12.5153 8.30385 12.8997L10.1789 14.7179C10.5667 15.0941 11.1833 15.0941 11.5711 14.7179L15.6961 10.7179Z" fill="white"/>
</g>
</svg>
